%TF.GenerationSoftware,KiCad,Pcbnew,9.0.5*%
%TF.CreationDate,2026-05-16T14:06:08-07:00*%
%TF.ProjectId,SelfBalancingCube,53656c66-4261-46c6-916e-63696e674375,rev?*%
%TF.SameCoordinates,Original*%
%TF.FileFunction,Legend,Top*%
%TF.FilePolarity,Positive*%
%FSLAX46Y46*%
G04 Gerber Fmt 4.6, Leading zero omitted, Abs format (unit mm)*
G04 Created by KiCad (PCBNEW 9.0.5) date 2026-05-16 14:06:08*
%MOMM*%
%LPD*%
G01*
G04 APERTURE LIST*
%ADD10C,0.150000*%
%ADD11C,0.120000*%
G04 APERTURE END LIST*
D10*
X144083333Y-89959580D02*
X144035714Y-90007200D01*
X144035714Y-90007200D02*
X143892857Y-90054819D01*
X143892857Y-90054819D02*
X143797619Y-90054819D01*
X143797619Y-90054819D02*
X143654762Y-90007200D01*
X143654762Y-90007200D02*
X143559524Y-89911961D01*
X143559524Y-89911961D02*
X143511905Y-89816723D01*
X143511905Y-89816723D02*
X143464286Y-89626247D01*
X143464286Y-89626247D02*
X143464286Y-89483390D01*
X143464286Y-89483390D02*
X143511905Y-89292914D01*
X143511905Y-89292914D02*
X143559524Y-89197676D01*
X143559524Y-89197676D02*
X143654762Y-89102438D01*
X143654762Y-89102438D02*
X143797619Y-89054819D01*
X143797619Y-89054819D02*
X143892857Y-89054819D01*
X143892857Y-89054819D02*
X144035714Y-89102438D01*
X144035714Y-89102438D02*
X144083333Y-89150057D01*
X144416667Y-89054819D02*
X145035714Y-89054819D01*
X145035714Y-89054819D02*
X144702381Y-89435771D01*
X144702381Y-89435771D02*
X144845238Y-89435771D01*
X144845238Y-89435771D02*
X144940476Y-89483390D01*
X144940476Y-89483390D02*
X144988095Y-89531009D01*
X144988095Y-89531009D02*
X145035714Y-89626247D01*
X145035714Y-89626247D02*
X145035714Y-89864342D01*
X145035714Y-89864342D02*
X144988095Y-89959580D01*
X144988095Y-89959580D02*
X144940476Y-90007200D01*
X144940476Y-90007200D02*
X144845238Y-90054819D01*
X144845238Y-90054819D02*
X144559524Y-90054819D01*
X144559524Y-90054819D02*
X144464286Y-90007200D01*
X144464286Y-90007200D02*
X144416667Y-89959580D01*
X90333333Y-105954819D02*
X90000000Y-105478628D01*
X89761905Y-105954819D02*
X89761905Y-104954819D01*
X89761905Y-104954819D02*
X90142857Y-104954819D01*
X90142857Y-104954819D02*
X90238095Y-105002438D01*
X90238095Y-105002438D02*
X90285714Y-105050057D01*
X90285714Y-105050057D02*
X90333333Y-105145295D01*
X90333333Y-105145295D02*
X90333333Y-105288152D01*
X90333333Y-105288152D02*
X90285714Y-105383390D01*
X90285714Y-105383390D02*
X90238095Y-105431009D01*
X90238095Y-105431009D02*
X90142857Y-105478628D01*
X90142857Y-105478628D02*
X89761905Y-105478628D01*
X90714286Y-105050057D02*
X90761905Y-105002438D01*
X90761905Y-105002438D02*
X90857143Y-104954819D01*
X90857143Y-104954819D02*
X91095238Y-104954819D01*
X91095238Y-104954819D02*
X91190476Y-105002438D01*
X91190476Y-105002438D02*
X91238095Y-105050057D01*
X91238095Y-105050057D02*
X91285714Y-105145295D01*
X91285714Y-105145295D02*
X91285714Y-105240533D01*
X91285714Y-105240533D02*
X91238095Y-105383390D01*
X91238095Y-105383390D02*
X90666667Y-105954819D01*
X90666667Y-105954819D02*
X91285714Y-105954819D01*
X90333333Y-97454819D02*
X90000000Y-96978628D01*
X89761905Y-97454819D02*
X89761905Y-96454819D01*
X89761905Y-96454819D02*
X90142857Y-96454819D01*
X90142857Y-96454819D02*
X90238095Y-96502438D01*
X90238095Y-96502438D02*
X90285714Y-96550057D01*
X90285714Y-96550057D02*
X90333333Y-96645295D01*
X90333333Y-96645295D02*
X90333333Y-96788152D01*
X90333333Y-96788152D02*
X90285714Y-96883390D01*
X90285714Y-96883390D02*
X90238095Y-96931009D01*
X90238095Y-96931009D02*
X90142857Y-96978628D01*
X90142857Y-96978628D02*
X89761905Y-96978628D01*
X91285714Y-97454819D02*
X90714286Y-97454819D01*
X91000000Y-97454819D02*
X91000000Y-96454819D01*
X91000000Y-96454819D02*
X90904762Y-96597676D01*
X90904762Y-96597676D02*
X90809524Y-96692914D01*
X90809524Y-96692914D02*
X90714286Y-96740533D01*
X97404761Y-84420057D02*
X97309523Y-84372438D01*
X97309523Y-84372438D02*
X97214285Y-84277200D01*
X97214285Y-84277200D02*
X97071428Y-84134342D01*
X97071428Y-84134342D02*
X96976190Y-84086723D01*
X96976190Y-84086723D02*
X96880952Y-84086723D01*
X96928571Y-84324819D02*
X96833333Y-84277200D01*
X96833333Y-84277200D02*
X96738095Y-84181961D01*
X96738095Y-84181961D02*
X96690476Y-83991485D01*
X96690476Y-83991485D02*
X96690476Y-83658152D01*
X96690476Y-83658152D02*
X96738095Y-83467676D01*
X96738095Y-83467676D02*
X96833333Y-83372438D01*
X96833333Y-83372438D02*
X96928571Y-83324819D01*
X96928571Y-83324819D02*
X97119047Y-83324819D01*
X97119047Y-83324819D02*
X97214285Y-83372438D01*
X97214285Y-83372438D02*
X97309523Y-83467676D01*
X97309523Y-83467676D02*
X97357142Y-83658152D01*
X97357142Y-83658152D02*
X97357142Y-83991485D01*
X97357142Y-83991485D02*
X97309523Y-84181961D01*
X97309523Y-84181961D02*
X97214285Y-84277200D01*
X97214285Y-84277200D02*
X97119047Y-84324819D01*
X97119047Y-84324819D02*
X96928571Y-84324819D01*
X97738095Y-83420057D02*
X97785714Y-83372438D01*
X97785714Y-83372438D02*
X97880952Y-83324819D01*
X97880952Y-83324819D02*
X98119047Y-83324819D01*
X98119047Y-83324819D02*
X98214285Y-83372438D01*
X98214285Y-83372438D02*
X98261904Y-83420057D01*
X98261904Y-83420057D02*
X98309523Y-83515295D01*
X98309523Y-83515295D02*
X98309523Y-83610533D01*
X98309523Y-83610533D02*
X98261904Y-83753390D01*
X98261904Y-83753390D02*
X97690476Y-84324819D01*
X97690476Y-84324819D02*
X98309523Y-84324819D01*
X113666666Y-97954819D02*
X113666666Y-98669104D01*
X113666666Y-98669104D02*
X113619047Y-98811961D01*
X113619047Y-98811961D02*
X113523809Y-98907200D01*
X113523809Y-98907200D02*
X113380952Y-98954819D01*
X113380952Y-98954819D02*
X113285714Y-98954819D01*
X114571428Y-97954819D02*
X114380952Y-97954819D01*
X114380952Y-97954819D02*
X114285714Y-98002438D01*
X114285714Y-98002438D02*
X114238095Y-98050057D01*
X114238095Y-98050057D02*
X114142857Y-98192914D01*
X114142857Y-98192914D02*
X114095238Y-98383390D01*
X114095238Y-98383390D02*
X114095238Y-98764342D01*
X114095238Y-98764342D02*
X114142857Y-98859580D01*
X114142857Y-98859580D02*
X114190476Y-98907200D01*
X114190476Y-98907200D02*
X114285714Y-98954819D01*
X114285714Y-98954819D02*
X114476190Y-98954819D01*
X114476190Y-98954819D02*
X114571428Y-98907200D01*
X114571428Y-98907200D02*
X114619047Y-98859580D01*
X114619047Y-98859580D02*
X114666666Y-98764342D01*
X114666666Y-98764342D02*
X114666666Y-98526247D01*
X114666666Y-98526247D02*
X114619047Y-98431009D01*
X114619047Y-98431009D02*
X114571428Y-98383390D01*
X114571428Y-98383390D02*
X114476190Y-98335771D01*
X114476190Y-98335771D02*
X114285714Y-98335771D01*
X114285714Y-98335771D02*
X114190476Y-98383390D01*
X114190476Y-98383390D02*
X114142857Y-98431009D01*
X114142857Y-98431009D02*
X114095238Y-98526247D01*
X145666666Y-61804819D02*
X145333333Y-61328628D01*
X145095238Y-61804819D02*
X145095238Y-60804819D01*
X145095238Y-60804819D02*
X145476190Y-60804819D01*
X145476190Y-60804819D02*
X145571428Y-60852438D01*
X145571428Y-60852438D02*
X145619047Y-60900057D01*
X145619047Y-60900057D02*
X145666666Y-60995295D01*
X145666666Y-60995295D02*
X145666666Y-61138152D01*
X145666666Y-61138152D02*
X145619047Y-61233390D01*
X145619047Y-61233390D02*
X145571428Y-61281009D01*
X145571428Y-61281009D02*
X145476190Y-61328628D01*
X145476190Y-61328628D02*
X145095238Y-61328628D01*
X146095238Y-61281009D02*
X146428571Y-61281009D01*
X146571428Y-61804819D02*
X146095238Y-61804819D01*
X146095238Y-61804819D02*
X146095238Y-60804819D01*
X146095238Y-60804819D02*
X146571428Y-60804819D01*
X147333333Y-61281009D02*
X147000000Y-61281009D01*
X147000000Y-61804819D02*
X147000000Y-60804819D01*
X147000000Y-60804819D02*
X147476190Y-60804819D01*
X148000000Y-60804819D02*
X148000000Y-61042914D01*
X147761905Y-60947676D02*
X148000000Y-61042914D01*
X148000000Y-61042914D02*
X148238095Y-60947676D01*
X147857143Y-61233390D02*
X148000000Y-61042914D01*
X148000000Y-61042914D02*
X148142857Y-61233390D01*
X148761905Y-60804819D02*
X148761905Y-61042914D01*
X148523810Y-60947676D02*
X148761905Y-61042914D01*
X148761905Y-61042914D02*
X149000000Y-60947676D01*
X148619048Y-61233390D02*
X148761905Y-61042914D01*
X148761905Y-61042914D02*
X148904762Y-61233390D01*
X122666666Y-83954819D02*
X122666666Y-84669104D01*
X122666666Y-84669104D02*
X122619047Y-84811961D01*
X122619047Y-84811961D02*
X122523809Y-84907200D01*
X122523809Y-84907200D02*
X122380952Y-84954819D01*
X122380952Y-84954819D02*
X122285714Y-84954819D01*
X123047619Y-83954819D02*
X123666666Y-83954819D01*
X123666666Y-83954819D02*
X123333333Y-84335771D01*
X123333333Y-84335771D02*
X123476190Y-84335771D01*
X123476190Y-84335771D02*
X123571428Y-84383390D01*
X123571428Y-84383390D02*
X123619047Y-84431009D01*
X123619047Y-84431009D02*
X123666666Y-84526247D01*
X123666666Y-84526247D02*
X123666666Y-84764342D01*
X123666666Y-84764342D02*
X123619047Y-84859580D01*
X123619047Y-84859580D02*
X123571428Y-84907200D01*
X123571428Y-84907200D02*
X123476190Y-84954819D01*
X123476190Y-84954819D02*
X123190476Y-84954819D01*
X123190476Y-84954819D02*
X123095238Y-84907200D01*
X123095238Y-84907200D02*
X123047619Y-84859580D01*
X80666666Y-113954819D02*
X80333333Y-113478628D01*
X80095238Y-113954819D02*
X80095238Y-112954819D01*
X80095238Y-112954819D02*
X80476190Y-112954819D01*
X80476190Y-112954819D02*
X80571428Y-113002438D01*
X80571428Y-113002438D02*
X80619047Y-113050057D01*
X80619047Y-113050057D02*
X80666666Y-113145295D01*
X80666666Y-113145295D02*
X80666666Y-113288152D01*
X80666666Y-113288152D02*
X80619047Y-113383390D01*
X80619047Y-113383390D02*
X80571428Y-113431009D01*
X80571428Y-113431009D02*
X80476190Y-113478628D01*
X80476190Y-113478628D02*
X80095238Y-113478628D01*
X81095238Y-113431009D02*
X81428571Y-113431009D01*
X81571428Y-113954819D02*
X81095238Y-113954819D01*
X81095238Y-113954819D02*
X81095238Y-112954819D01*
X81095238Y-112954819D02*
X81571428Y-112954819D01*
X82333333Y-113431009D02*
X82000000Y-113431009D01*
X82000000Y-113954819D02*
X82000000Y-112954819D01*
X82000000Y-112954819D02*
X82476190Y-112954819D01*
X83000000Y-112954819D02*
X83000000Y-113192914D01*
X82761905Y-113097676D02*
X83000000Y-113192914D01*
X83000000Y-113192914D02*
X83238095Y-113097676D01*
X82857143Y-113383390D02*
X83000000Y-113192914D01*
X83000000Y-113192914D02*
X83142857Y-113383390D01*
X83761905Y-112954819D02*
X83761905Y-113192914D01*
X83523810Y-113097676D02*
X83761905Y-113192914D01*
X83761905Y-113192914D02*
X84000000Y-113097676D01*
X83619048Y-113383390D02*
X83761905Y-113192914D01*
X83761905Y-113192914D02*
X83904762Y-113383390D01*
X103333333Y-65359580D02*
X103285714Y-65407200D01*
X103285714Y-65407200D02*
X103142857Y-65454819D01*
X103142857Y-65454819D02*
X103047619Y-65454819D01*
X103047619Y-65454819D02*
X102904762Y-65407200D01*
X102904762Y-65407200D02*
X102809524Y-65311961D01*
X102809524Y-65311961D02*
X102761905Y-65216723D01*
X102761905Y-65216723D02*
X102714286Y-65026247D01*
X102714286Y-65026247D02*
X102714286Y-64883390D01*
X102714286Y-64883390D02*
X102761905Y-64692914D01*
X102761905Y-64692914D02*
X102809524Y-64597676D01*
X102809524Y-64597676D02*
X102904762Y-64502438D01*
X102904762Y-64502438D02*
X103047619Y-64454819D01*
X103047619Y-64454819D02*
X103142857Y-64454819D01*
X103142857Y-64454819D02*
X103285714Y-64502438D01*
X103285714Y-64502438D02*
X103333333Y-64550057D01*
X104285714Y-65454819D02*
X103714286Y-65454819D01*
X104000000Y-65454819D02*
X104000000Y-64454819D01*
X104000000Y-64454819D02*
X103904762Y-64597676D01*
X103904762Y-64597676D02*
X103809524Y-64692914D01*
X103809524Y-64692914D02*
X103714286Y-64740533D01*
X122666666Y-75454819D02*
X122666666Y-76169104D01*
X122666666Y-76169104D02*
X122619047Y-76311961D01*
X122619047Y-76311961D02*
X122523809Y-76407200D01*
X122523809Y-76407200D02*
X122380952Y-76454819D01*
X122380952Y-76454819D02*
X122285714Y-76454819D01*
X123571428Y-75788152D02*
X123571428Y-76454819D01*
X123333333Y-75407200D02*
X123095238Y-76121485D01*
X123095238Y-76121485D02*
X123714285Y-76121485D01*
X84666666Y-66954819D02*
X84666666Y-67669104D01*
X84666666Y-67669104D02*
X84619047Y-67811961D01*
X84619047Y-67811961D02*
X84523809Y-67907200D01*
X84523809Y-67907200D02*
X84380952Y-67954819D01*
X84380952Y-67954819D02*
X84285714Y-67954819D01*
X85047619Y-66954819D02*
X85714285Y-66954819D01*
X85714285Y-66954819D02*
X85285714Y-67954819D01*
X142738095Y-73604819D02*
X142738095Y-74414342D01*
X142738095Y-74414342D02*
X142785714Y-74509580D01*
X142785714Y-74509580D02*
X142833333Y-74557200D01*
X142833333Y-74557200D02*
X142928571Y-74604819D01*
X142928571Y-74604819D02*
X143119047Y-74604819D01*
X143119047Y-74604819D02*
X143214285Y-74557200D01*
X143214285Y-74557200D02*
X143261904Y-74509580D01*
X143261904Y-74509580D02*
X143309523Y-74414342D01*
X143309523Y-74414342D02*
X143309523Y-73604819D01*
X144309523Y-74604819D02*
X143738095Y-74604819D01*
X144023809Y-74604819D02*
X144023809Y-73604819D01*
X144023809Y-73604819D02*
X143928571Y-73747676D01*
X143928571Y-73747676D02*
X143833333Y-73842914D01*
X143833333Y-73842914D02*
X143738095Y-73890533D01*
X122666666Y-66954819D02*
X122666666Y-67669104D01*
X122666666Y-67669104D02*
X122619047Y-67811961D01*
X122619047Y-67811961D02*
X122523809Y-67907200D01*
X122523809Y-67907200D02*
X122380952Y-67954819D01*
X122380952Y-67954819D02*
X122285714Y-67954819D01*
X123619047Y-66954819D02*
X123142857Y-66954819D01*
X123142857Y-66954819D02*
X123095238Y-67431009D01*
X123095238Y-67431009D02*
X123142857Y-67383390D01*
X123142857Y-67383390D02*
X123238095Y-67335771D01*
X123238095Y-67335771D02*
X123476190Y-67335771D01*
X123476190Y-67335771D02*
X123571428Y-67383390D01*
X123571428Y-67383390D02*
X123619047Y-67431009D01*
X123619047Y-67431009D02*
X123666666Y-67526247D01*
X123666666Y-67526247D02*
X123666666Y-67764342D01*
X123666666Y-67764342D02*
X123619047Y-67859580D01*
X123619047Y-67859580D02*
X123571428Y-67907200D01*
X123571428Y-67907200D02*
X123476190Y-67954819D01*
X123476190Y-67954819D02*
X123238095Y-67954819D01*
X123238095Y-67954819D02*
X123142857Y-67907200D01*
X123142857Y-67907200D02*
X123095238Y-67859580D01*
X80666666Y-61804819D02*
X80333333Y-61328628D01*
X80095238Y-61804819D02*
X80095238Y-60804819D01*
X80095238Y-60804819D02*
X80476190Y-60804819D01*
X80476190Y-60804819D02*
X80571428Y-60852438D01*
X80571428Y-60852438D02*
X80619047Y-60900057D01*
X80619047Y-60900057D02*
X80666666Y-60995295D01*
X80666666Y-60995295D02*
X80666666Y-61138152D01*
X80666666Y-61138152D02*
X80619047Y-61233390D01*
X80619047Y-61233390D02*
X80571428Y-61281009D01*
X80571428Y-61281009D02*
X80476190Y-61328628D01*
X80476190Y-61328628D02*
X80095238Y-61328628D01*
X81095238Y-61281009D02*
X81428571Y-61281009D01*
X81571428Y-61804819D02*
X81095238Y-61804819D01*
X81095238Y-61804819D02*
X81095238Y-60804819D01*
X81095238Y-60804819D02*
X81571428Y-60804819D01*
X82333333Y-61281009D02*
X82000000Y-61281009D01*
X82000000Y-61804819D02*
X82000000Y-60804819D01*
X82000000Y-60804819D02*
X82476190Y-60804819D01*
X83000000Y-60804819D02*
X83000000Y-61042914D01*
X82761905Y-60947676D02*
X83000000Y-61042914D01*
X83000000Y-61042914D02*
X83238095Y-60947676D01*
X82857143Y-61233390D02*
X83000000Y-61042914D01*
X83000000Y-61042914D02*
X83142857Y-61233390D01*
X83761905Y-60804819D02*
X83761905Y-61042914D01*
X83523810Y-60947676D02*
X83761905Y-61042914D01*
X83761905Y-61042914D02*
X84000000Y-60947676D01*
X83619048Y-61233390D02*
X83761905Y-61042914D01*
X83761905Y-61042914D02*
X83904762Y-61233390D01*
X116754819Y-108333333D02*
X117469104Y-108333333D01*
X117469104Y-108333333D02*
X117611961Y-108380952D01*
X117611961Y-108380952D02*
X117707200Y-108476190D01*
X117707200Y-108476190D02*
X117754819Y-108619047D01*
X117754819Y-108619047D02*
X117754819Y-108714285D01*
X117754819Y-107333333D02*
X117754819Y-107904761D01*
X117754819Y-107619047D02*
X116754819Y-107619047D01*
X116754819Y-107619047D02*
X116897676Y-107714285D01*
X116897676Y-107714285D02*
X116992914Y-107809523D01*
X116992914Y-107809523D02*
X117040533Y-107904761D01*
X108666666Y-67014819D02*
X108666666Y-67729104D01*
X108666666Y-67729104D02*
X108619047Y-67871961D01*
X108619047Y-67871961D02*
X108523809Y-67967200D01*
X108523809Y-67967200D02*
X108380952Y-68014819D01*
X108380952Y-68014819D02*
X108285714Y-68014819D01*
X109285714Y-67443390D02*
X109190476Y-67395771D01*
X109190476Y-67395771D02*
X109142857Y-67348152D01*
X109142857Y-67348152D02*
X109095238Y-67252914D01*
X109095238Y-67252914D02*
X109095238Y-67205295D01*
X109095238Y-67205295D02*
X109142857Y-67110057D01*
X109142857Y-67110057D02*
X109190476Y-67062438D01*
X109190476Y-67062438D02*
X109285714Y-67014819D01*
X109285714Y-67014819D02*
X109476190Y-67014819D01*
X109476190Y-67014819D02*
X109571428Y-67062438D01*
X109571428Y-67062438D02*
X109619047Y-67110057D01*
X109619047Y-67110057D02*
X109666666Y-67205295D01*
X109666666Y-67205295D02*
X109666666Y-67252914D01*
X109666666Y-67252914D02*
X109619047Y-67348152D01*
X109619047Y-67348152D02*
X109571428Y-67395771D01*
X109571428Y-67395771D02*
X109476190Y-67443390D01*
X109476190Y-67443390D02*
X109285714Y-67443390D01*
X109285714Y-67443390D02*
X109190476Y-67491009D01*
X109190476Y-67491009D02*
X109142857Y-67538628D01*
X109142857Y-67538628D02*
X109095238Y-67633866D01*
X109095238Y-67633866D02*
X109095238Y-67824342D01*
X109095238Y-67824342D02*
X109142857Y-67919580D01*
X109142857Y-67919580D02*
X109190476Y-67967200D01*
X109190476Y-67967200D02*
X109285714Y-68014819D01*
X109285714Y-68014819D02*
X109476190Y-68014819D01*
X109476190Y-68014819D02*
X109571428Y-67967200D01*
X109571428Y-67967200D02*
X109619047Y-67919580D01*
X109619047Y-67919580D02*
X109666666Y-67824342D01*
X109666666Y-67824342D02*
X109666666Y-67633866D01*
X109666666Y-67633866D02*
X109619047Y-67538628D01*
X109619047Y-67538628D02*
X109571428Y-67491009D01*
X109571428Y-67491009D02*
X109476190Y-67443390D01*
X96819047Y-69231009D02*
X96961904Y-69278628D01*
X96961904Y-69278628D02*
X97009523Y-69326247D01*
X97009523Y-69326247D02*
X97057142Y-69421485D01*
X97057142Y-69421485D02*
X97057142Y-69564342D01*
X97057142Y-69564342D02*
X97009523Y-69659580D01*
X97009523Y-69659580D02*
X96961904Y-69707200D01*
X96961904Y-69707200D02*
X96866666Y-69754819D01*
X96866666Y-69754819D02*
X96485714Y-69754819D01*
X96485714Y-69754819D02*
X96485714Y-68754819D01*
X96485714Y-68754819D02*
X96819047Y-68754819D01*
X96819047Y-68754819D02*
X96914285Y-68802438D01*
X96914285Y-68802438D02*
X96961904Y-68850057D01*
X96961904Y-68850057D02*
X97009523Y-68945295D01*
X97009523Y-68945295D02*
X97009523Y-69040533D01*
X97009523Y-69040533D02*
X96961904Y-69135771D01*
X96961904Y-69135771D02*
X96914285Y-69183390D01*
X96914285Y-69183390D02*
X96819047Y-69231009D01*
X96819047Y-69231009D02*
X96485714Y-69231009D01*
X97390476Y-68754819D02*
X98057142Y-68754819D01*
X98057142Y-68754819D02*
X97390476Y-69754819D01*
X97390476Y-69754819D02*
X98057142Y-69754819D01*
X98961904Y-69754819D02*
X98390476Y-69754819D01*
X98676190Y-69754819D02*
X98676190Y-68754819D01*
X98676190Y-68754819D02*
X98580952Y-68897676D01*
X98580952Y-68897676D02*
X98485714Y-68992914D01*
X98485714Y-68992914D02*
X98390476Y-69040533D01*
X93509048Y-74033866D02*
X94270953Y-74033866D01*
X93890000Y-74414819D02*
X93890000Y-73652914D01*
X145666666Y-106804819D02*
X145333333Y-106328628D01*
X145095238Y-106804819D02*
X145095238Y-105804819D01*
X145095238Y-105804819D02*
X145476190Y-105804819D01*
X145476190Y-105804819D02*
X145571428Y-105852438D01*
X145571428Y-105852438D02*
X145619047Y-105900057D01*
X145619047Y-105900057D02*
X145666666Y-105995295D01*
X145666666Y-105995295D02*
X145666666Y-106138152D01*
X145666666Y-106138152D02*
X145619047Y-106233390D01*
X145619047Y-106233390D02*
X145571428Y-106281009D01*
X145571428Y-106281009D02*
X145476190Y-106328628D01*
X145476190Y-106328628D02*
X145095238Y-106328628D01*
X146095238Y-106281009D02*
X146428571Y-106281009D01*
X146571428Y-106804819D02*
X146095238Y-106804819D01*
X146095238Y-106804819D02*
X146095238Y-105804819D01*
X146095238Y-105804819D02*
X146571428Y-105804819D01*
X147333333Y-106281009D02*
X147000000Y-106281009D01*
X147000000Y-106804819D02*
X147000000Y-105804819D01*
X147000000Y-105804819D02*
X147476190Y-105804819D01*
X148000000Y-105804819D02*
X148000000Y-106042914D01*
X147761905Y-105947676D02*
X148000000Y-106042914D01*
X148000000Y-106042914D02*
X148238095Y-105947676D01*
X147857143Y-106233390D02*
X148000000Y-106042914D01*
X148000000Y-106042914D02*
X148142857Y-106233390D01*
X148761905Y-105804819D02*
X148761905Y-106042914D01*
X148523810Y-105947676D02*
X148761905Y-106042914D01*
X148761905Y-106042914D02*
X149000000Y-105947676D01*
X148619048Y-106233390D02*
X148761905Y-106042914D01*
X148761905Y-106042914D02*
X148904762Y-106233390D01*
D11*
%TO.C,C3*%
X147520000Y-94000000D02*
G75*
G02*
X140980000Y-94000000I-3270000J0D01*
G01*
X140980000Y-94000000D02*
G75*
G02*
X147520000Y-94000000I3270000J0D01*
G01*
%TO.C,R2*%
X93880000Y-105000000D02*
X94650000Y-105000000D01*
X101960000Y-105000000D02*
X101190000Y-105000000D01*
X94650000Y-103630000D02*
X101190000Y-103630000D01*
X101190000Y-106370000D01*
X94650000Y-106370000D01*
X94650000Y-103630000D01*
%TO.C,R1*%
X93880000Y-97000000D02*
X94650000Y-97000000D01*
X101960000Y-97000000D02*
X101190000Y-97000000D01*
X94650000Y-95630000D02*
X101190000Y-95630000D01*
X101190000Y-98370000D01*
X94650000Y-98370000D01*
X94650000Y-95630000D01*
%TO.C,Q2*%
X95700000Y-90120000D02*
X99300000Y-90120000D01*
X95688125Y-90111741D02*
G75*
G02*
X96680000Y-85820000I1811875J1841741D01*
G01*
X98280000Y-85820000D02*
G75*
G02*
X99308445Y-90097684I-780000J-2450000D01*
G01*
%TO.C,J6*%
X112620000Y-99500000D02*
X114000000Y-99500000D01*
X112620000Y-100880000D02*
X112620000Y-99500000D01*
X112620000Y-102150000D02*
X112620000Y-109880000D01*
X112620000Y-102150000D02*
X115380000Y-102150000D01*
X112620000Y-109880000D02*
X115380000Y-109880000D01*
X115380000Y-102150000D02*
X115380000Y-109880000D01*
%TO.C,J3*%
X112840000Y-88380000D02*
X112840000Y-87000000D01*
X114220000Y-88380000D02*
X112840000Y-88380000D01*
X115490000Y-85620000D02*
X133380000Y-85620000D01*
X115490000Y-88380000D02*
X115490000Y-85620000D01*
X115490000Y-88380000D02*
X133380000Y-88380000D01*
X133380000Y-88380000D02*
X133380000Y-85620000D01*
%TO.C,C1*%
X95380000Y-63630000D02*
X100620000Y-63630000D01*
X95380000Y-63967000D02*
X95380000Y-63630000D01*
X95380000Y-66370000D02*
X95380000Y-66033000D01*
X100620000Y-63630000D02*
X100620000Y-63967000D01*
X100620000Y-66033000D02*
X100620000Y-66370000D01*
X100620000Y-66370000D02*
X95380000Y-66370000D01*
%TO.C,J4*%
X112730000Y-79880000D02*
X112730000Y-78500000D01*
X114110000Y-79880000D02*
X112730000Y-79880000D01*
X115380000Y-77120000D02*
X133270000Y-77120000D01*
X115380000Y-79880000D02*
X115380000Y-77120000D01*
X115380000Y-79880000D02*
X133270000Y-79880000D01*
X133270000Y-79880000D02*
X133270000Y-77120000D01*
%TO.C,J7*%
X83670000Y-71250000D02*
X83670000Y-106870000D01*
X83670000Y-71250000D02*
X86330000Y-71250000D01*
X83670000Y-106870000D02*
X86330000Y-106870000D01*
X85000000Y-68650000D02*
X86330000Y-68650000D01*
X86330000Y-68650000D02*
X86330000Y-69980000D01*
X86330000Y-71250000D02*
X86330000Y-106870000D01*
%TO.C,U1*%
X138390000Y-68690000D02*
X148610000Y-68690000D01*
X138390000Y-73310000D02*
X138390000Y-68690000D01*
X141650000Y-73310000D02*
X141650000Y-71930000D01*
X145350000Y-73310000D02*
X145350000Y-71930000D01*
X148610000Y-68690000D02*
X148610000Y-73310000D01*
X148610000Y-71930000D02*
X138390000Y-71930000D01*
X148610000Y-73310000D02*
X138390000Y-73310000D01*
%TO.C,J5*%
X112730000Y-71380000D02*
X112730000Y-70000000D01*
X114110000Y-71380000D02*
X112730000Y-71380000D01*
X115380000Y-68620000D02*
X133270000Y-68620000D01*
X115380000Y-71380000D02*
X115380000Y-68620000D01*
X115380000Y-71380000D02*
X133270000Y-71380000D01*
X133270000Y-71380000D02*
X133270000Y-68620000D01*
%TO.C,R3*%
X93880000Y-101000000D02*
X94650000Y-101000000D01*
X101960000Y-101000000D02*
X101190000Y-101000000D01*
X94650000Y-99630000D02*
X101190000Y-99630000D01*
X101190000Y-102370000D01*
X94650000Y-102370000D01*
X94650000Y-99630000D01*
%TO.C,J1*%
X118150000Y-108200000D02*
X118150000Y-111050000D01*
X118150000Y-111050000D02*
X121000000Y-111050000D01*
X118390000Y-105190000D02*
X128210000Y-105190000D01*
X118390000Y-108000000D02*
X118390000Y-105190000D01*
X118390000Y-108000000D02*
X118390000Y-110810000D01*
X118390000Y-110810000D02*
X128210000Y-110810000D01*
X128210000Y-105190000D02*
X128210000Y-106190000D01*
X128210000Y-106190000D02*
X129610000Y-106190000D01*
X128210000Y-109810000D02*
X129610000Y-109810000D01*
X128210000Y-110810000D02*
X128210000Y-109810000D01*
X129610000Y-106190000D02*
X129610000Y-108000000D01*
X129610000Y-109810000D02*
X129610000Y-108000000D01*
%TO.C,J8*%
X107670000Y-104290000D02*
X107670000Y-68670000D01*
X107670000Y-106890000D02*
X107670000Y-105560000D01*
X109000000Y-106890000D02*
X107670000Y-106890000D01*
X110330000Y-68670000D02*
X107670000Y-68670000D01*
X110330000Y-104290000D02*
X107670000Y-104290000D01*
X110330000Y-104290000D02*
X110330000Y-68670000D01*
%TO.C,BZ1*%
X103800000Y-76500000D02*
G75*
G02*
X91600000Y-76500000I-6100000J0D01*
G01*
X91600000Y-76500000D02*
G75*
G02*
X103800000Y-76500000I6100000J0D01*
G01*
%TD*%
M02*
