M48
; DRILL file {KiCad 9.0.5} date 2026-05-16T14:06:16-0700
; FORMAT={-:-/ absolute / metric / decimal}
; #@! TF.CreationDate,2026-05-16T14:06:16-07:00
; #@! TF.GenerationSoftware,Kicad,Pcbnew,9.0.5
; #@! TF.FileFunction,Plated,1,2,PTH
FMAT,2
METRIC
; #@! TA.AperFunction,Plated,PTH,ViaDrill
T1C0.300
; #@! TA.AperFunction,Plated,PTH,ComponentDrill
T2C0.750
; #@! TA.AperFunction,Plated,PTH,ComponentDrill
T3C0.800
; #@! TA.AperFunction,Plated,PTH,ComponentDrill
T4C1.000
; #@! TA.AperFunction,Plated,PTH,ComponentDrill
T5C1.100
; #@! TA.AperFunction,Plated,PTH,ComponentDrill
T6C1.400
%
G90
G05
T1
X90.889Y-104.389
X99.0Y-78.0
X104.5Y-99.6
X105.5Y-78.0
X105.5Y-86.0
X105.5Y-98.0
X106.5Y-78.0
X106.5Y-100.5
X106.64Y-92.86
X112.0Y-89.0
X112.0Y-91.5
X112.0Y-95.0
X115.5Y-96.5
X123.0Y-89.0
X123.6Y-68.1
X129.5Y-89.0
X133.0Y-89.0
T2
X96.23Y-88.27
X97.5Y-87.0
X98.77Y-88.27
T3
X92.84Y-97.0
X92.84Y-101.0
X92.84Y-105.0
X95.5Y-65.0
X100.5Y-65.0
X103.0Y-97.0
X103.0Y-101.0
X103.0Y-105.0
X143.0Y-94.0
X145.5Y-94.0
T4
X85.0Y-69.98
X85.0Y-72.52
X85.0Y-75.06
X85.0Y-77.6
X85.0Y-80.14
X85.0Y-82.68
X85.0Y-85.22
X85.0Y-87.76
X85.0Y-90.3
X85.0Y-92.84
X85.0Y-95.38
X85.0Y-97.92
X85.0Y-100.46
X85.0Y-103.0
X85.0Y-105.54
X93.9Y-76.5
X101.5Y-76.5
X109.0Y-70.0
X109.0Y-72.54
X109.0Y-75.08
X109.0Y-77.62
X109.0Y-80.16
X109.0Y-82.7
X109.0Y-85.24
X109.0Y-87.78
X109.0Y-90.32
X109.0Y-92.86
X109.0Y-95.4
X109.0Y-97.94
X109.0Y-100.48
X109.0Y-103.02
X109.0Y-105.56
X114.0Y-100.88
X114.0Y-103.42
X114.0Y-105.96
X114.0Y-108.5
X114.11Y-70.0
X114.11Y-78.5
X114.22Y-87.0
X116.65Y-70.0
X116.65Y-78.5
X116.76Y-87.0
X119.19Y-70.0
X119.19Y-78.5
X119.3Y-87.0
X121.73Y-70.0
X121.73Y-78.5
X121.84Y-87.0
X124.27Y-70.0
X124.27Y-78.5
X124.38Y-87.0
X126.81Y-70.0
X126.81Y-78.5
X126.92Y-87.0
X129.35Y-70.0
X129.35Y-78.5
X129.46Y-87.0
X131.89Y-70.0
X131.89Y-78.5
X132.0Y-87.0
T5
X140.96Y-70.05
X143.5Y-70.05
X146.04Y-70.05
T6
X120.75Y-108.0
X126.25Y-108.0
M30
